<?xml version="1.0" encoding="UTF-8"?><svg xmlns="http://www.w3.org/2000/svg" viewBox="0 0 114.28 168.2"><g id="a"/><g id="b"><g id="c"><g><path fill="#f72331" d="M14.03,56.94c3.28,3.66,6.56,7.31,10.77,12,4.03-5.03,7.42-9.27,10.81-13.5l1.69,1.07v12.35c11-.57,21.43-.55,31.7-1.86,6.23-.8,11.56-9.77,10.64-15.45-1.4-8.6-6.82-13.48-15.01-13.51-2.93-.01-5.85,0-9.33-1.05,4.09-3.54,8.18-7.09,13.7-11.87-5.16-3.9-9.2-6.96-13.25-10.02,16.86-3.53,30.46,.59,39.94,13.34,12.19,16.38,11.13,33.47,.49,48.61,5.21,8.23,10.93,15.08,14.28,22.93,12.31,28.9-6.54,60.81-36.95,67.04-4.36,.89-8.92,1.08-13.39,1.11-15.62,.13-31.24,.05-47.12,.05V57.78l1.02-.84Zm23.67,86.06c1.95,.13,3.26,.32,4.57,.29,8.46-.26,16.92-.44,25.37-.88,11.02-.58,20.87-9.99,22.02-24.05,.88-10.75-8.42-23.49-19.48-24.8-10.6-1.26-21.46-.27-32.47-.27v49.72Z"/><path fill="#f72331" d="M25.11,0c8.08,8.15,16.47,16.63,24.77,25.01-8.33,8.27-16.87,16.75-25.25,25.07C16.67,41.94,8.25,33.33,0,24.89,7.72,17.24,16.28,8.76,25.11,0Z"/></g></g></g></svg>